<svg id="Layer_1" data-name="Layer 1" xmlns="http://www.w3.org/2000/svg" viewBox="0 0 350.97 48"><defs><style>.cls-1,.cls-2{fill:#fff;}.cls-2{opacity:0.5;}</style></defs><title>logo-header</title><path class="cls-1" d="M22.05,14.66a7.61,7.61,0,0,0-1.13-.84,13.83,13.83,0,0,0-2-1,17.29,17.29,0,0,0-2.55-.86,11.14,11.14,0,0,0-2.79-.35,6.25,6.25,0,0,0-3.76.93A3.07,3.07,0,0,0,8.59,15.1a2.68,2.68,0,0,0,.47,1.62,4,4,0,0,0,1.35,1.13,11.3,11.3,0,0,0,2.24.89q1.35.4,3.12.84,2.3.62,4.18,1.33a11.34,11.34,0,0,1,3.19,1.77,7.32,7.32,0,0,1,2,2.55,8.45,8.45,0,0,1,.71,3.65,9.1,9.1,0,0,1-1,4.32,8.07,8.07,0,0,1-2.55,2.9,10.89,10.89,0,0,1-3.72,1.62,19,19,0,0,1-4.43.51,23.66,23.66,0,0,1-7-1.06,21.59,21.59,0,0,1-6.2-3l2.7-5.27a8.51,8.51,0,0,0,1.44,1A21.79,21.79,0,0,0,7.62,31.2a19,19,0,0,0,3.14,1.08,14.19,14.19,0,0,0,3.54.44q5,0,5-3.23a2.72,2.72,0,0,0-.58-1.77,4.9,4.9,0,0,0-1.64-1.24,15.74,15.74,0,0,0-2.57-1q-1.51-.44-3.37-.93a28.63,28.63,0,0,1-3.92-1.35,10.64,10.64,0,0,1-2.77-1.71,6.22,6.22,0,0,1-1.66-2.3,8.14,8.14,0,0,1-.55-3.14,9.76,9.76,0,0,1,.89-4.25,8.58,8.58,0,0,1,2.46-3.1A11.13,11.13,0,0,1,9.3,6.84a15.11,15.11,0,0,1,4.47-.64,17.37,17.37,0,0,1,6.11,1A22.82,22.82,0,0,1,24.75,9.7Z"/><path class="cls-1" d="M43.57,38.08a13.55,13.55,0,0,1-6.07-1.35,15.08,15.08,0,0,1-4.72-3.59,16.07,16.07,0,0,1-3-5.11,16.87,16.87,0,0,1-1.06-5.89A16.56,16.56,0,0,1,33,11a15.2,15.2,0,0,1,4.76-3.52,13.74,13.74,0,0,1,6-1.31,13.2,13.2,0,0,1,6.07,1.4,15.25,15.25,0,0,1,4.69,3.65,16.59,16.59,0,0,1,3,5.14,16.76,16.76,0,0,1,1.06,5.85,16.16,16.16,0,0,1-1.13,6,16.39,16.39,0,0,1-3.12,5,15.08,15.08,0,0,1-4.74,3.5A13.74,13.74,0,0,1,43.57,38.08ZM34.85,22.14a13.07,13.07,0,0,0,.6,3.94,10.68,10.68,0,0,0,1.73,3.37,8.67,8.67,0,0,0,2.77,2.35,7.69,7.69,0,0,0,3.72.89,7.51,7.51,0,0,0,3.74-.91,8.52,8.52,0,0,0,2.72-2.41A11.21,11.21,0,0,0,51.81,26a13,13,0,0,0,.58-3.83,12.66,12.66,0,0,0-.62-3.94A11,11,0,0,0,50,14.83a8.49,8.49,0,0,0-2.75-2.32,7.63,7.63,0,0,0-3.65-.86,7.52,7.52,0,0,0-3.74.91,8.88,8.88,0,0,0-2.75,2.39,10.64,10.64,0,0,0-1.71,3.37A13,13,0,0,0,34.85,22.14Z"/><path class="cls-1" d="M88.92,37.86V17l-8.1,15.5H77.49L69.39,17V37.86H63.28V6.42h6.55l9.3,17.89L88.52,6.42H95V37.86Z"/><path class="cls-1" d="M114.64,38.08a13.55,13.55,0,0,1-6.07-1.35,15.08,15.08,0,0,1-4.72-3.59,16.07,16.07,0,0,1-3-5.11,16.87,16.87,0,0,1-1.06-5.89A16.56,16.56,0,0,1,104,11a15.2,15.2,0,0,1,4.76-3.52,13.74,13.74,0,0,1,6-1.31,13.2,13.2,0,0,1,6.07,1.4,15.25,15.25,0,0,1,4.69,3.65,16.59,16.59,0,0,1,3,5.14,16.76,16.76,0,0,1,1.06,5.85,16.16,16.16,0,0,1-1.13,6,16.39,16.39,0,0,1-3.12,5,15.08,15.08,0,0,1-4.74,3.5A13.74,13.74,0,0,1,114.64,38.08Zm-8.72-15.94a13.07,13.07,0,0,0,.6,3.94,10.68,10.68,0,0,0,1.73,3.37A8.67,8.67,0,0,0,111,31.79a7.69,7.69,0,0,0,3.72.89,7.51,7.51,0,0,0,3.74-.91,8.52,8.52,0,0,0,2.72-2.41A11.21,11.21,0,0,0,122.88,26a13,13,0,0,0,.58-3.83,12.66,12.66,0,0,0-.62-3.94,11,11,0,0,0-1.75-3.37,8.49,8.49,0,0,0-2.75-2.32,7.63,7.63,0,0,0-3.65-.86,7.52,7.52,0,0,0-3.74.91,8.88,8.88,0,0,0-2.75,2.39,10.64,10.64,0,0,0-1.71,3.37A13,13,0,0,0,105.92,22.14Z"/><path class="cls-1" d="M152.95,14.66a7.61,7.61,0,0,0-1.13-.84,13.83,13.83,0,0,0-2-1,17.29,17.29,0,0,0-2.55-.86,11.14,11.14,0,0,0-2.79-.35,6.25,6.25,0,0,0-3.76.93,3.07,3.07,0,0,0-1.24,2.61,2.68,2.68,0,0,0,.47,1.62,4,4,0,0,0,1.35,1.13,11.3,11.3,0,0,0,2.24.89q1.35.4,3.12.84,2.3.62,4.18,1.33A11.34,11.34,0,0,1,154,22.67a7.32,7.32,0,0,1,2,2.55,8.45,8.45,0,0,1,.71,3.65,9.1,9.1,0,0,1-1,4.32,8.07,8.07,0,0,1-2.55,2.9,10.89,10.89,0,0,1-3.72,1.62,19,19,0,0,1-4.43.51,23.66,23.66,0,0,1-7-1.06,21.59,21.59,0,0,1-6.2-3l2.7-5.27a8.51,8.51,0,0,0,1.44,1,21.79,21.79,0,0,0,2.46,1.28,19,19,0,0,0,3.14,1.08,14.19,14.19,0,0,0,3.54.44q5,0,5-3.23a2.72,2.72,0,0,0-.58-1.77A4.9,4.9,0,0,0,148,26.48a15.74,15.74,0,0,0-2.57-1q-1.51-.44-3.37-.93a28.63,28.63,0,0,1-3.92-1.35,10.64,10.64,0,0,1-2.77-1.71,6.22,6.22,0,0,1-1.66-2.3,8.14,8.14,0,0,1-.55-3.14,9.76,9.76,0,0,1,.89-4.25,8.58,8.58,0,0,1,2.46-3.1,11.13,11.13,0,0,1,3.65-1.88,15.11,15.11,0,0,1,4.47-.64,17.37,17.37,0,0,1,6.11,1,22.82,22.82,0,0,1,4.87,2.46Z"/><path class="cls-2" d="M172,37.86V6.42h11.42a17.08,17.08,0,0,1,6.75,1.24A13.58,13.58,0,0,1,197.94,16a18.76,18.76,0,0,1,1,6.09,18.42,18.42,0,0,1-1.09,6.49,13.84,13.84,0,0,1-3.12,5,14.07,14.07,0,0,1-4.89,3.19,17.27,17.27,0,0,1-6.4,1.13ZM192.75,22.1a13.42,13.42,0,0,0-.62-4.16,9.33,9.33,0,0,0-1.82-3.28,8.08,8.08,0,0,0-2.95-2.13,9.93,9.93,0,0,0-4-.75H178.1V32.5h5.31a9.56,9.56,0,0,0,4-.8,8.21,8.21,0,0,0,2.92-2.19,9.78,9.78,0,0,0,1.79-3.3A13.26,13.26,0,0,0,192.75,22.1Z"/><path class="cls-2" d="M199.48,37.86l12.4-31.44h5L229.2,37.86h-6.46L219.85,30h-11l-2.88,7.84ZM214.36,13l-4.52,12.71h8.9Z"/><path class="cls-2" d="M232.56,37.86V6.42h13.9a8.93,8.93,0,0,1,4,.91,10.38,10.38,0,0,1,3.17,2.39,11.29,11.29,0,0,1,2.08,3.37,10.13,10.13,0,0,1,.75,3.79,10.45,10.45,0,0,1-1.53,5.56A8.77,8.77,0,0,1,250.81,26l7.4,11.82h-6.91l-6.6-10.54h-6V37.86ZM238.67,22h7.66a3.23,3.23,0,0,0,1.57-.4,4,4,0,0,0,1.26-1.08,5.41,5.41,0,0,0,.84-1.62,6.28,6.28,0,0,0,.31-2,5.7,5.7,0,0,0-.35-2,5.35,5.35,0,0,0-1-1.62,4.31,4.31,0,0,0-1.37-1.06,3.57,3.57,0,0,0-1.57-.38h-7.39Z"/><path class="cls-2" d="M272,6.51h5.62l3.54,10.41,3.54-10.41h5.67L285,20.81l4,10.05,8.9-24.44h6.64l-12.8,31.44h-5.14l-5.45-13.2-5.45,13.2H270.6L257.85,6.42h6.6l8.94,24.44,3.9-10.05Z"/><path class="cls-2" d="M307.79,37.86V6.46h6.11v31.4Z"/><path class="cls-2" d="M326.57,17.71V37.86h-6.11V6.42h4.74l16.38,20.63V6.46h6.11v31.4h-5Z"/></svg>