<svg id="Layer_1" data-name="Layer 1" xmlns="http://www.w3.org/2000/svg" viewBox="0 0 120.96 71.64"><defs><style>.cls-1{fill:#fff;}.cls-2{fill:#ee5e4d;}</style></defs><title>logo-footer</title><path class="cls-1" d="M15.38,19.09a9.13,9.13,0,0,0-3.19-2.2,11.25,11.25,0,0,0-4.44-.81l-7.51,0,0,20.67,7.51,0A11.35,11.35,0,0,0,12,36a9.21,9.21,0,0,0,3.21-2.1,9.08,9.08,0,0,0,2-3.26,12.07,12.07,0,0,0,.7-4.26,12.34,12.34,0,0,0-.65-4A9.18,9.18,0,0,0,15.38,19.09Zm-1.87,10a6.41,6.41,0,0,1-1.18,2.17,5.39,5.39,0,0,1-1.92,1.44,6.28,6.28,0,0,1-2.63.53H4.29l0-13.62H7.75a6.58,6.58,0,0,1,2.61.49,5.33,5.33,0,0,1,1.94,1.39,6.13,6.13,0,0,1,1.2,2.15,8.75,8.75,0,0,1,.41,2.73A8.69,8.69,0,0,1,13.51,29.08Z"/><path class="cls-1" d="M27.23,16,19.38,36.72h4.13l1.88-5.16,7.22,0,1.93,5.15h4.13L30.78,16ZM26.06,28.73l3-8.13,2.87,8.12Z"/><path class="cls-1" d="M56.69,26.49a6.89,6.89,0,0,0,1-3.66,6.7,6.7,0,0,0-.5-2.49,7.44,7.44,0,0,0-1.37-2.21,6.86,6.86,0,0,0-2.08-1.57A5.86,5.86,0,0,0,51.09,16l-9.14,0,0,20.66h4V29.73h4l4.24,6.92H58.7L54,28.87A5.77,5.77,0,0,0,56.69,26.49Zm-3.25-2.34a3.53,3.53,0,0,1-.55,1.06,2.62,2.62,0,0,1-.83.71,2.12,2.12,0,0,1-1,.26H46V19.51h4.86a2.36,2.36,0,0,1,1,.25,2.84,2.84,0,0,1,.9.7,3.47,3.47,0,0,1,.63,1.06,3.75,3.75,0,0,1,.24,1.34A4.14,4.14,0,0,1,53.43,24.15Z"/><polygon class="cls-1" points="80.42 31.98 77.79 25.38 81.28 15.97 77.56 15.98 75.25 22.82 72.91 15.99 69.21 15.99 72.69 25.39 70.14 32 64.23 15.95 59.92 15.96 68.32 36.6 71.7 36.6 75.26 27.91 78.86 36.58 82.23 36.57 90.6 15.89 86.23 15.9 80.42 31.98"/><rect class="cls-1" x="94.09" y="15.88" width="4.02" height="20.67" transform="translate(-0.06 0.22) rotate(-0.13)"/><polygon class="cls-1" points="120.96 36.48 120.92 15.84 116.9 15.85 116.93 29.38 106.13 15.84 103.01 15.85 103.06 36.52 107.08 36.51 107.05 23.26 117.7 36.48 120.96 36.48"/><path class="cls-2" d="M28.14,55.31a.26.26,0,0,1-.07-.18v-7.2a.27.27,0,0,1,.07-.19.23.23,0,0,1,.18-.07h2.79a2.94,2.94,0,0,1,2,.6,2.5,2.5,0,0,1,0,3.49,3,3,0,0,1-2,.6h-2v2.78a.25.25,0,0,1-.25.25h-.55A.23.23,0,0,1,28.14,55.31Zm2.91-3.86q1.67,0,1.67-1.45a1.38,1.38,0,0,0-.41-1.08,1.81,1.81,0,0,0-1.25-.38H29.12v2.9Z"/><path class="cls-2" d="M37.35,55.32a.21.21,0,0,1-.07-.15l0-.12L40,47.91a.34.34,0,0,1,.35-.24h.71a.34.34,0,0,1,.35.24L44.19,55l0,.12a.2.2,0,0,1-.07.15.23.23,0,0,1-.16.07h-.52a.27.27,0,0,1-.18-.06.29.29,0,0,1-.09-.13l-.62-1.59H38.92l-.61,1.59a.29.29,0,0,1-.28.19h-.53A.21.21,0,0,1,37.35,55.32Zm1.89-2.63h3l-1.51-4Z"/><path class="cls-2" d="M48.8,55.31a.26.26,0,0,1-.07-.18V47.92a.26.26,0,0,1,.07-.18.23.23,0,0,1,.18-.07h.55a.23.23,0,0,1,.18.07.26.26,0,0,1,.07.18v6.54h3.69a.26.26,0,0,1,.19.07.25.25,0,0,1,.07.18v.42a.24.24,0,0,1-.08.18.26.26,0,0,1-.19.07H49A.23.23,0,0,1,48.8,55.31Z"/><path class="cls-2" d="M58.33,55.31a.26.26,0,0,1-.07-.18v-7.2a.27.27,0,0,1,.07-.19.23.23,0,0,1,.18-.07H63a.25.25,0,0,1,.26.26v.4a.23.23,0,0,1-.07.18.27.27,0,0,1-.19.07H59.27V51h3.52a.25.25,0,0,1,.26.26v.38a.25.25,0,0,1-.07.18.26.26,0,0,1-.19.07H59.27v2.55h3.85a.25.25,0,0,1,.26.26v.4a.24.24,0,0,1-.08.18.26.26,0,0,1-.19.07H58.5A.23.23,0,0,1,58.33,55.31Z"/><path class="cls-2" d="M68.33,55.31a.26.26,0,0,1-.07-.18v-7.2a.27.27,0,0,1,.07-.19.23.23,0,0,1,.18-.07H71.2a3,3,0,0,1,2,.59A2.1,2.1,0,0,1,73.88,50a2.19,2.19,0,0,1-.42,1.38,2.17,2.17,0,0,1-1.17.75L74,55a.27.27,0,0,1,0,.12.23.23,0,0,1-.22.22h-.49a.4.4,0,0,1-.26-.08.73.73,0,0,1-.17-.22l-1.62-2.82h-2v2.87a.24.24,0,0,1-.08.18.26.26,0,0,1-.19.07h-.53A.23.23,0,0,1,68.33,55.31Zm2.82-4q1.67,0,1.67-1.4t-1.67-1.4H69.3v2.8Z"/><path class="cls-2" d="M78.88,55.31a.25.25,0,0,1-.07-.18v-7.2a.27.27,0,0,1,.07-.19.24.24,0,0,1,.19-.07h.52a.28.28,0,0,1,.28.17l2.35,4.51,2.37-4.51a.28.28,0,0,1,.26-.17h.52a.24.24,0,0,1,.19.07.27.27,0,0,1,.07.19v7.2a.24.24,0,0,1-.07.18.25.25,0,0,1-.18.07h-.51a.23.23,0,0,1-.18-.07.25.25,0,0,1-.07-.18V49.65L82.73,53.3a.37.37,0,0,1-.35.23H82a.38.38,0,0,1-.35-.23l-1.88-3.65v5.48a.25.25,0,0,1-.25.25h-.5A.24.24,0,0,1,78.88,55.31Z"/><path class="cls-2" d="M91.43,54.74a3.17,3.17,0,0,1-.83-2.28q0-.33,0-.94t0-.93a3.13,3.13,0,0,1,.86-2.27,3.48,3.48,0,0,1,4.37,0,3.14,3.14,0,0,1,.85,2.27q0,.64,0,.93t0,.94a3.18,3.18,0,0,1-.82,2.28,3.62,3.62,0,0,1-4.43,0Zm3.63-.7a2.39,2.39,0,0,0,.57-1.64c0-.44,0-.74,0-.88s0-.46,0-.88A2.41,2.41,0,0,0,95.06,49a2.12,2.12,0,0,0-2.83,0,2.36,2.36,0,0,0-.57,1.64q0,.32,0,.88t0,.88A2.35,2.35,0,0,0,92.23,54a2.14,2.14,0,0,0,2.84,0Z"/></svg>