<svg id="Layer_1" data-name="Layer 1" xmlns="http://www.w3.org/2000/svg" viewBox="0 0 120.96 71.64"><defs><style>.cls-1{fill:#fff;}.cls-2{fill:#f69b4b;}</style></defs><title>logo-footer</title><path class="cls-1" d="M0,37.07,0,16.36l7.52,0a11.26,11.26,0,0,1,4.45.81,9.16,9.16,0,0,1,3.2,2.21,9.21,9.21,0,0,1,1.93,3.28,12.33,12.33,0,0,1,.65,4,12.09,12.09,0,0,1-.7,4.27,9.13,9.13,0,0,1-2,3.27,9.25,9.25,0,0,1-3.22,2.11A11.37,11.37,0,0,1,7.57,37ZM13.7,26.65a8.82,8.82,0,0,0-.41-2.74,6.15,6.15,0,0,0-1.2-2.16,5.36,5.36,0,0,0-1.94-1.4,6.58,6.58,0,0,0-2.61-.49H4l0,13.65h3.5A6.3,6.3,0,0,0,10.2,33a5.4,5.4,0,0,0,1.92-1.45,6.42,6.42,0,0,0,1.18-2.17A8.75,8.75,0,0,0,13.7,26.65Z"/><path class="cls-1" d="M25.21,31.84,23.33,37H19.19L27,16.29H30.6L38.52,37H34.38l-1.94-5.16M31.71,29l-2.88-8.13-3,8.14"/><path class="cls-1" d="M41.84,37l0-20.7,9.16,0a5.87,5.87,0,0,1,2.64.59,6.82,6.82,0,0,1,2.09,1.57,7.43,7.43,0,0,1,1.38,2.21,6.68,6.68,0,0,1,.5,2.49,6.88,6.88,0,0,1-1,3.66,5.77,5.77,0,0,1-2.72,2.38l4.74,7.78H54.06L49.82,30h-4l0,6.94Zm4-10.48h5a2.13,2.13,0,0,0,1-.26,2.66,2.66,0,0,0,.83-.72,3.57,3.57,0,0,0,.55-1.07,4.14,4.14,0,0,0,.2-1.31,3.75,3.75,0,0,0-.24-1.34,3.49,3.49,0,0,0-.63-1.06,2.86,2.86,0,0,0-.91-.7,2.35,2.35,0,0,0-1-.25H45.83Z"/><path class="cls-1" d="M69.11,16.25h3.7l2.35,6.85,2.32-6.86h3.73L77.7,25.65l2.64,6.61,5.82-16.11h4.37L82.16,36.87H78.78L75.17,28.2l-3.57,8.7H68.22L59.8,16.22h4.32L70,32.29l2.55-6.63Z"/><path class="cls-1" d="M94.06,36.84l0-20.7h4l0,20.7Z"/><path class="cls-1" d="M107,23.54l0,13.27h-4l0-20.7h3.12l10.82,13.57,0-13.56h4l0,20.68h-3.27Z"/><path class="cls-2" d="M19.26,55.26a2.42,2.42,0,0,1-1-.76,1.79,1.79,0,0,1-.37-1,.21.21,0,0,1,.07-.16.22.22,0,0,1,.17-.07h.54a.28.28,0,0,1,.28.22,1.32,1.32,0,0,0,.57.8,2.28,2.28,0,0,0,1.34.33,2.42,2.42,0,0,0,1.4-.34,1.06,1.06,0,0,0,.46-.92.87.87,0,0,0-.23-.62,1.87,1.87,0,0,0-.67-.42q-.45-.18-1.34-.44a6.63,6.63,0,0,1-1.36-.52,2,2,0,0,1-.76-.68,1.89,1.89,0,0,1-.26-1,1.85,1.85,0,0,1,.32-1.07,2.14,2.14,0,0,1,.93-.74,3.5,3.5,0,0,1,1.44-.27,3.31,3.31,0,0,1,1.48.3,2.43,2.43,0,0,1,.94.76,1.76,1.76,0,0,1,.34.92.22.22,0,0,1-.07.17.23.23,0,0,1-.17.07h-.55a.27.27,0,0,1-.17-.05.31.31,0,0,1-.11-.17,1.11,1.11,0,0,0-.53-.78,2.05,2.05,0,0,0-1.16-.31,2.15,2.15,0,0,0-1.19.3,1,1,0,0,0-.44.87.94.94,0,0,0,.21.63,1.7,1.7,0,0,0,.63.43,10.87,10.87,0,0,0,1.25.43,9,9,0,0,1,1.48.53,2,2,0,0,1,.8.66,1.78,1.78,0,0,1,.27,1A1.9,1.9,0,0,1,23,55a3.55,3.55,0,0,1-2.14.59A4,4,0,0,1,19.26,55.26Z"/><path class="cls-2" d="M28,55.35a.21.21,0,0,1-.07-.15l0-.12,2.72-7.16a.34.34,0,0,1,.35-.24h.71a.34.34,0,0,1,.35.24l2.76,7.15,0,.12a.21.21,0,0,1-.07.16.24.24,0,0,1-.16.07H34.1a.28.28,0,0,1-.18-.06.29.29,0,0,1-.09-.13l-.62-1.59H29.55l-.6,1.59a.29.29,0,0,1-.28.19h-.53A.21.21,0,0,1,28,55.35Zm1.88-2.64h3l-1.52-4Z"/><path class="cls-2" d="M39.55,55.32a.25.25,0,0,1-.07-.18l0-7.22a.27.27,0,0,1,.07-.19.23.23,0,0,1,.18-.07h.49a.26.26,0,0,1,.17,0l.11.11,3.72,5.7V47.91a.26.26,0,0,1,.07-.19.25.25,0,0,1,.18-.07h.5a.26.26,0,0,1,.19.07.26.26,0,0,1,.07.19l0,7.21a.26.26,0,0,1-.07.19.23.23,0,0,1-.18.08h-.5a.27.27,0,0,1-.27-.15l-3.72-5.64v5.55a.24.24,0,0,1-.25.25h-.51A.23.23,0,0,1,39.55,55.32Z"/><path class="cls-2" d="M55.79,55.28a.26.26,0,0,1-.07-.18l0-7.23a.26.26,0,0,1,.07-.18.23.23,0,0,1,.18-.07h.55a.25.25,0,0,1,.19.07.26.26,0,0,1,.07.19l0,7.23a.25.25,0,0,1-.25.26H56A.23.23,0,0,1,55.79,55.28Z"/><path class="cls-2" d="M63.34,55.16a2.42,2.42,0,0,1-1-.75,1.8,1.8,0,0,1-.37-1,.21.21,0,0,1,.07-.15.22.22,0,0,1,.17-.07h.54a.28.28,0,0,1,.28.22,1.32,1.32,0,0,0,.57.8,2.26,2.26,0,0,0,1.34.33,2.42,2.42,0,0,0,1.4-.33,1.06,1.06,0,0,0,.46-.92.87.87,0,0,0-.23-.62,1.88,1.88,0,0,0-.68-.42q-.45-.18-1.34-.44a6.65,6.65,0,0,1-1.36-.52,2,2,0,0,1-.76-.68,1.89,1.89,0,0,1-.26-1,1.86,1.86,0,0,1,.32-1.07,2.15,2.15,0,0,1,.93-.74,3.5,3.5,0,0,1,1.44-.27,3.29,3.29,0,0,1,1.48.3,2.41,2.41,0,0,1,.93.76,1.77,1.77,0,0,1,.35.92.23.23,0,0,1-.23.23h-.55a.27.27,0,0,1-.17-.06.3.3,0,0,1-.11-.17A1.11,1.11,0,0,0,66,48.7a2.06,2.06,0,0,0-1.16-.31,2.13,2.13,0,0,0-1.19.3,1,1,0,0,0-.44.87.94.94,0,0,0,.21.63,1.72,1.72,0,0,0,.63.43,11.15,11.15,0,0,0,1.24.43,8.85,8.85,0,0,1,1.48.53,2,2,0,0,1,.8.66,1.77,1.77,0,0,1,.27,1,1.9,1.9,0,0,1-.79,1.62,3.54,3.54,0,0,1-2.14.58A4,4,0,0,1,63.34,55.16Z"/><path class="cls-2" d="M73.11,55.24a.26.26,0,0,1-.07-.18l0-7.23a.25.25,0,0,1,.07-.18.22.22,0,0,1,.18-.07h.55a.23.23,0,0,1,.26.25l0,7.23a.24.24,0,0,1-.25.25h-.55A.23.23,0,0,1,73.11,55.24Z"/><path class="cls-2" d="M79.84,55.23a.26.26,0,0,1-.07-.18l0-7.22a.28.28,0,0,1,.07-.19.23.23,0,0,1,.18-.07h2.5a3.29,3.29,0,0,1,2.41.74,3.14,3.14,0,0,1,.77,2.25c0,.21,0,.5,0,.86s0,.65,0,.87A4.18,4.18,0,0,1,85.35,54a2,2,0,0,1-1,1,4.2,4.2,0,0,1-1.79.33H80A.23.23,0,0,1,79.84,55.23Zm2.67-.85a2.94,2.94,0,0,0,1.23-.22,1.31,1.31,0,0,0,.66-.68,3.31,3.31,0,0,0,.22-1.24c0-.44,0-.72,0-.83s0-.39,0-.82A2.31,2.31,0,0,0,84.1,49a2.24,2.24,0,0,0-1.65-.51H80.8v5.91Z"/><path class="cls-2" d="M91.18,55.2a.25.25,0,0,1-.07-.18l0-7.22a.28.28,0,0,1,.07-.19.23.23,0,0,1,.18-.07H94a3,3,0,0,1,2,.59,2.11,2.11,0,0,1,.72,1.72A2.05,2.05,0,0,1,95.14,52l1.71,2.95a.28.28,0,0,1,0,.12.22.22,0,0,1-.07.15.21.21,0,0,1-.15.07h-.49a.39.39,0,0,1-.26-.07.74.74,0,0,1-.17-.22l-1.63-2.83h-2V55a.24.24,0,0,1-.08.18.27.27,0,0,1-.19.07h-.53A.23.23,0,0,1,91.18,55.2Zm2.82-4q1.67,0,1.67-1.41T94,48.42H92.14v2.81Z"/><path class="cls-2" d="M102.62,54.6a3.16,3.16,0,0,1-.83-2.28q0-.33,0-.94c0-.41,0-.71,0-.93a3.13,3.13,0,0,1,.85-2.28,3.49,3.49,0,0,1,4.38,0,3.14,3.14,0,0,1,.86,2.28c0,.43,0,.74,0,.93s0,.5,0,.94a3.19,3.19,0,0,1-.82,2.28,3.63,3.63,0,0,1-4.44,0Zm3.63-.7a2.4,2.4,0,0,0,.57-1.64c0-.44,0-.74,0-.88s0-.46,0-.88a2.41,2.41,0,0,0-.58-1.64,2.13,2.13,0,0,0-2.83,0,2.36,2.36,0,0,0-.57,1.65c0,.21,0,.51,0,.88s0,.66,0,.88a2.35,2.35,0,0,0,.57,1.64,2.15,2.15,0,0,0,2.84,0Z"/></svg>