<svg id="Layer_1" data-name="Layer 1" xmlns="http://www.w3.org/2000/svg" viewBox="0 0 120.96 71.64"><defs><style>.cls-1{fill:#fff;}.cls-2{fill:#f69b4b;}</style></defs><title>logo-footer</title><path class="cls-1" d="M23.34,9.26H99.77a.45.45,0,1,0,0-.9H23.34a.45.45,0,0,0,0,.9Z"/><path class="cls-1" d="M32.12,15.26v2H90.85v-2H87.75V11h2a.34.34,0,0,0,0-.68H33.32a.34.34,0,0,0,0,.68h2.21v4.24Zm35.63,0H55.22V11H67.75Zm.9-4.24H79.3v4.24H68.65ZM54.32,15.26H44V11H54.32Zm32.76,0H80.2V11h6.88ZM36.21,11h6.86v4.24H36.21Z"/><path class="cls-1" d="M24.27,21.51a4,4,0,0,0,.6,0H98.51l.39,0a3.56,3.56,0,0,0,1.63-.37h0a1.39,1.39,0,0,0,.88-1.14,1.39,1.39,0,0,0-.88-1.14h0a3.56,3.56,0,0,0-1.63-.37,4.08,4.08,0,0,0-.54,0H24c-1.28.07-2.29.71-2.29,1.5S22.88,21.51,24.27,21.51ZM96,20.8H93.61V19.16H96Zm-3,0H90.52V19.16h2.42Zm-3.09,0H87V19.16h2.83Zm-3.5,0H83.91V19.16h2.43Zm-3.11,0H80.74V19.16h2.49Zm-3.16,0H77.72V19.16h2.35Zm-3,0H74.58V19.16H77Zm-3.14,0H71.42V19.16h2.49Zm-3.16,0h-2.1V19.16h2.1ZM68,20.8h-2.8V19.16H68Zm-3.47,0H62V19.16H64.5Zm-3.15,0H58.76V19.16h2.59Zm-3.26,0H55.51V19.16h2.57Zm-3.25,0H52.7V19.16h2.14ZM52,20.8H49.55V19.16H52Zm-3.15,0h-2.4V19.16h2.4Zm-3.07,0H43.32V19.16H45.8Zm-3.16,0H40.17V19.16h2.48Zm-3.15,0H37V19.16h2.46Zm-3.14,0H33.6V19.16h2.76Zm-3.43,0H30.8V19.16h2.12Zm-2.8,0H27V19.16h3.08Z"/><path class="cls-1" d="M21.6,30.95h80a.34.34,0,0,0,0-.68h-80a.34.34,0,0,0,0,.68Z"/><polygon class="cls-1" points="40.63 32.3 61.36 32.38 82.08 32.3 92.45 32.21 102.81 32.04 92.45 31.88 82.08 31.79 61.36 31.71 40.63 31.79 30.27 31.88 19.91 32.04 30.27 32.21 40.63 32.3"/><path class="cls-1" d="M93.8,33.57l-10.73-.13-21.47-.1-21.47.1c-7.16.07-14.31.16-21.47.34,7.16.19,14.31.27,21.47.34l21.47.1,21.47-.1L93.8,34l10.73-.22Z"/><path class="cls-1" d="M41.13,22.3a.22.22,0,0,0-.21-.16H23.75a4.63,4.63,0,0,1-1.87-.82.23.23,0,0,0-.35.19v7.94a.23.23,0,0,0,.23.23h12a.23.23,0,0,0,.23-.23V27.71L41,22.55A.22.22,0,0,0,41.13,22.3ZM26.88,27.8a.36.36,0,0,1-.36.36H22.76a.36.36,0,0,1-.36-.36V24a.36.36,0,0,1,.36-.36h3.75a.36.36,0,0,1,.36.36Zm5.26,0a.36.36,0,0,1-.36.36H28a.36.36,0,0,1-.36-.36V24a.36.36,0,0,1,.36-.36h3.75a.36.36,0,0,1,.36.36Z"/><path class="cls-1" d="M88.78,27.75,81,22.19a.23.23,0,0,0-.13,0H42.37a.23.23,0,0,0-.13,0l-7.65,5.6a.22.22,0,0,0-.09.18v1.49a.23.23,0,0,0,.23.23H88.65a.23.23,0,0,0,.23-.23V27.94A.23.23,0,0,0,88.78,27.75Zm-40.13,0a.4.4,0,0,1-.4.4H43.5a.4.4,0,0,1-.4-.4V24.1a.4.4,0,0,1,.4-.4h4.74a.4.4,0,0,1,.4.4Zm4.75.07a.35.35,0,0,1-.35.35H49.56a.35.35,0,0,1-.35-.35V24a.35.35,0,0,1,.35-.35H53a.35.35,0,0,1,.35.35Zm5.34,0a.37.37,0,0,1-.37.37H54.28a.37.37,0,0,1-.37-.37V24.07a.37.37,0,0,1,.37-.37h4.08a.37.37,0,0,1,.37.37Zm5.37,0a.37.37,0,0,1-.37.37H59.65a.37.37,0,0,1-.37-.37V24.07a.37.37,0,0,1,.37-.37h4.08a.37.37,0,0,1,.37.37Zm5.37,0a.37.37,0,0,1-.37.37H65a.37.37,0,0,1-.37-.37V24.07a.37.37,0,0,1,.37-.37H69.1a.37.37,0,0,1,.37.37Zm5.12,0a.36.36,0,0,1-.36.36H70.41A.36.36,0,0,1,70,27.8V24.05a.36.36,0,0,1,.36-.36h3.82a.36.36,0,0,1,.36.36Zm6-.05a.4.4,0,0,1-.4.4H75.43a.4.4,0,0,1-.4-.4V24.1a.4.4,0,0,1,.4-.4h4.79a.4.4,0,0,1,.4.4Z"/><path class="cls-1" d="M101.72,21.29a.23.23,0,0,0-.23,0,4.63,4.63,0,0,1-1.87.82H82.46a.22.22,0,0,0-.13.41l7.11,5.16v1.74a.23.23,0,0,0,.23.23h12a.23.23,0,0,0,.23-.23V21.49A.23.23,0,0,0,101.72,21.29Zm-6,6.49a.36.36,0,0,1-.36.36H91.59a.36.36,0,0,1-.36-.36V24a.36.36,0,0,1,.36-.36h3.75a.36.36,0,0,1,.36.36Zm5.26,0a.36.36,0,0,1-.36.36H96.85a.36.36,0,0,1-.36-.36V24a.36.36,0,0,1,.36-.36h3.75A.36.36,0,0,1,101,24Z"/><path class="cls-1" d="M15.54,41v1H13.06v7.49H11.89V41.93H9.41V41Z"/><path class="cls-1" d="M18.38,49.41H17.21V41h2.19a5.1,5.1,0,0,1,1.27.15,3.33,3.33,0,0,1,1,.45,2.19,2.19,0,0,1,.7.75,2.07,2.07,0,0,1,.25,1,2.24,2.24,0,0,1-.56,1.52,3.2,3.2,0,0,1-1.58.94l3,3.6H22.07L19.32,46h-.94Zm3.12-6a1.25,1.25,0,0,0-.63-1.13,2.26,2.26,0,0,0-.67-.25,3.76,3.76,0,0,0-.8-.08h-1v3.18H19a4.64,4.64,0,0,0,1-.1,2.61,2.61,0,0,0,.8-.31,1.59,1.59,0,0,0,.54-.53A1.45,1.45,0,0,0,21.5,43.38Z"/><path class="cls-1" d="M26.22,49.41H25.05V41h1.17Z"/><path class="cls-1" d="M34.35,47.05a2,2,0,0,1-.24,1,2.19,2.19,0,0,1-.67.75,3.28,3.28,0,0,1-1,.48,4.9,4.9,0,0,1-1.34.17H28.69V41h2.62a4,4,0,0,1,1.12.15,2.63,2.63,0,0,1,.87.42,1.92,1.92,0,0,1,.56.65,1.79,1.79,0,0,1,.2.83,1.69,1.69,0,0,1-.49,1.23,3.07,3.07,0,0,1-1.25.75,2.93,2.93,0,0,1,1.49.69A1.76,1.76,0,0,1,34.35,47.05ZM30.88,44.6a3.1,3.1,0,0,0,.8-.1,2.09,2.09,0,0,0,.65-.29,1.41,1.41,0,0,0,.42-.45,1.19,1.19,0,0,0,.15-.6,1.05,1.05,0,0,0-.48-.94,2.2,2.2,0,0,0-1.23-.31H29.81v2.7ZM33.24,47a1.22,1.22,0,0,0-.18-.66,1.42,1.42,0,0,0-.48-.47,2.36,2.36,0,0,0-.71-.27,4.07,4.07,0,0,0-.86-.09h-1.2v3h1.35a2.73,2.73,0,0,0,1.52-.37A1.24,1.24,0,0,0,33.24,47Z"/><path class="cls-1" d="M41.68,41h1.17v5.45a3.51,3.51,0,0,1-.22,1.24,2.8,2.8,0,0,1-.63,1,2.92,2.92,0,0,1-1,.66,4.34,4.34,0,0,1-2.85,0,2.92,2.92,0,0,1-1-.66,2.82,2.82,0,0,1-.63-1,3.51,3.51,0,0,1-.22-1.24V41h1.17v5.5A2.21,2.21,0,0,0,37.93,48a2.45,2.45,0,0,0,3.21,0,2.22,2.22,0,0,0,.54-1.55Z"/><path class="cls-1" d="M51,49.41l-4.73-6.63v6.63H45.2V41h1.11L51,47.6V41h1.11v8.44Z"/><path class="cls-1" d="M61.76,49.41H60.57l-.77-2H55.85l-.76,2H53.9L57.26,41H58.4Zm-5.55-3h3.24L57.83,42Z"/><path class="cls-1" d="M70.28,49.56a4.18,4.18,0,0,1-1.76-.35,3.78,3.78,0,0,1-1.29-1,4.12,4.12,0,0,1-.79-1.39,5.28,5.28,0,0,1,0-3.34,4.12,4.12,0,0,1,.79-1.39,3.78,3.78,0,0,1,1.29-1,4.55,4.55,0,0,1,3.52,0,3.79,3.79,0,0,1,1.29,1,4.12,4.12,0,0,1,.79,1.39,5.27,5.27,0,0,1,0,3.34,4.12,4.12,0,0,1-.79,1.39,3.79,3.79,0,0,1-1.29,1A4.18,4.18,0,0,1,70.28,49.56Zm0-.94a2.94,2.94,0,0,0,1.28-.27,2.55,2.55,0,0,0,.92-.73,3.32,3.32,0,0,0,.56-1.1,4.8,4.8,0,0,0,0-2.67,3.25,3.25,0,0,0-.56-1.09,2.65,2.65,0,0,0-.92-.73A3.14,3.14,0,0,0,69,42a2.65,2.65,0,0,0-.92.73,3.24,3.24,0,0,0-.56,1.09,4.8,4.8,0,0,0,0,2.67,3.3,3.3,0,0,0,.56,1.1,2.55,2.55,0,0,0,.92.73A2.94,2.94,0,0,0,70.28,48.63Z"/><path class="cls-1" d="M76.36,49.41V41h4.75v1H77.53v2.89H81v1H77.53v3.65Z"/><path class="cls-1" d="M84.25,49.41H83.08V41h1.17Z"/><path class="cls-1" d="M90.63,40.82a7,7,0,0,1,1.19.11,4.78,4.78,0,0,1,1,.28l-.19.9a6.36,6.36,0,0,0-.92-.25,5.17,5.17,0,0,0-1-.09,3.34,3.34,0,0,0-2.47.89,4.06,4.06,0,0,0,0,5.07,3.34,3.34,0,0,0,2.47.89,5.17,5.17,0,0,0,1-.09,6.42,6.42,0,0,0,.92-.25l.19.9a4.75,4.75,0,0,1-1,.29,7,7,0,0,1-1.19.11,4.93,4.93,0,0,1-1.86-.33,3.87,3.87,0,0,1-1.37-.91,4,4,0,0,1-.86-1.38,5.29,5.29,0,0,1,0-3.5,4,4,0,0,1,.86-1.38,3.88,3.88,0,0,1,1.37-.91A4.94,4.94,0,0,1,90.63,40.82Z"/><path class="cls-1" d="M96.05,49.41H94.89V41h1.17Z"/><path class="cls-1" d="M105.72,49.41h-1.19l-.77-2H99.82l-.76,2H97.87L101.22,41h1.14Zm-5.55-3h3.24L101.79,42Z"/><path class="cls-1" d="M108.63,41v7.49h3.52v1h-4.69V41Z"/><path class="cls-1" d="M11.33,63.21V61.47H9.62v1.74H8.76V59.08h.87v1.67h1.71V59.08h.87v4.13Z"/><path class="cls-1" d="M15.06,63.21h-.87V59.08h.87Z"/><path class="cls-1" d="M19.92,60.38a1.2,1.2,0,0,1-.14.59,1.25,1.25,0,0,1-.39.42,1.77,1.77,0,0,1-.59.25,3,3,0,0,1-.72.08h-.17v1.47H17V59.08h1.13a2.91,2.91,0,0,1,.69.08,1.66,1.66,0,0,1,.55.24,1.16,1.16,0,0,1,.37.41A1.2,1.2,0,0,1,19.92,60.38Zm-.87,0a.52.52,0,0,0-.24-.47,1.2,1.2,0,0,0-.65-.15h-.25v1.31h.21a1.21,1.21,0,0,0,.68-.17A.58.58,0,0,0,19.06,60.38Z"/><path class="cls-1" d="M25.53,61.14a2.42,2.42,0,0,1-.14.83,2,2,0,0,1-.4.68,1.89,1.89,0,0,1-.65.46,2.37,2.37,0,0,1-1.77,0,1.92,1.92,0,0,1-.65-.46,2,2,0,0,1-.4-.68,2.57,2.57,0,0,1,0-1.65,1.94,1.94,0,0,1,.4-.68,1.92,1.92,0,0,1,.65-.46,2.37,2.37,0,0,1,1.77,0,1.9,1.9,0,0,1,.65.46,2,2,0,0,1,.4.68A2.43,2.43,0,0,1,25.53,61.14ZM23.46,62.6a1.19,1.19,0,0,0,.53-.11,1.08,1.08,0,0,0,.38-.31,1.32,1.32,0,0,0,.23-.46,2.26,2.26,0,0,0,0-1.15,1.32,1.32,0,0,0-.23-.46A1.08,1.08,0,0,0,24,59.8a1.31,1.31,0,0,0-1.06,0,1.07,1.07,0,0,0-.38.31,1.32,1.32,0,0,0-.23.46,2.26,2.26,0,0,0,0,1.15,1.32,1.32,0,0,0,.23.46,1.07,1.07,0,0,0,.38.31A1.19,1.19,0,0,0,23.46,62.6Zm-.39-3.89.46-.74h1l-.76.74Z"/><path class="cls-1" d="M27.29,59.08h1.25a3,3,0,0,1,1,.16,2.27,2.27,0,0,1,.76.43,1.92,1.92,0,0,1,.48.65,2.09,2.09,0,0,1,0,1.65,1.92,1.92,0,0,1-.48.65,2.25,2.25,0,0,1-.76.43,3,3,0,0,1-1,.16H27.29Zm1.26,3.44a1.9,1.9,0,0,0,.61-.09,1.37,1.37,0,0,0,.48-.27,1.21,1.21,0,0,0,.31-.43,1.56,1.56,0,0,0,0-1.16,1.21,1.21,0,0,0-.31-.43,1.38,1.38,0,0,0-.48-.27,1.91,1.91,0,0,0-.61-.09h-.4v2.75Z"/><path class="cls-1" d="M35.65,60.34a1.13,1.13,0,0,1-.25.74,1.56,1.56,0,0,1-.71.46l1.39,1.67H35l-1.2-1.51h-.28v1.51h-.87V59.08h1.23a3,3,0,0,1,.71.08,1.67,1.67,0,0,1,.55.24,1.14,1.14,0,0,1,.36.39A1.12,1.12,0,0,1,35.65,60.34Zm-.87,0a.49.49,0,0,0-.25-.46,1.29,1.29,0,0,0-.64-.14h-.36V61h.26a1.33,1.33,0,0,0,.72-.17A.57.57,0,0,0,34.78,60.35Z"/><path class="cls-1" d="M41.51,61.14a2.42,2.42,0,0,1-.14.83,2,2,0,0,1-.4.68,1.89,1.89,0,0,1-.65.46,2.37,2.37,0,0,1-1.77,0,1.92,1.92,0,0,1-.65-.46,2,2,0,0,1-.4-.68,2.57,2.57,0,0,1,0-1.65,1.94,1.94,0,0,1,.4-.68,1.92,1.92,0,0,1,.65-.46,2.37,2.37,0,0,1,1.77,0,1.9,1.9,0,0,1,.65.46,2,2,0,0,1,.4.68A2.43,2.43,0,0,1,41.51,61.14ZM39.43,62.6a1.19,1.19,0,0,0,.53-.11,1.08,1.08,0,0,0,.38-.31,1.32,1.32,0,0,0,.23-.46,2.26,2.26,0,0,0,0-1.15,1.32,1.32,0,0,0-.23-.46A1.08,1.08,0,0,0,40,59.8a1.31,1.31,0,0,0-1.06,0,1.07,1.07,0,0,0-.38.31,1.32,1.32,0,0,0-.23.46,2.26,2.26,0,0,0,0,1.15,1.32,1.32,0,0,0,.23.46,1.07,1.07,0,0,0,.38.31A1.19,1.19,0,0,0,39.43,62.6Z"/><path class="cls-1" d="M46.75,59.08h.78l.3,4.13H47l-.14-2.57-.91,1.87H45l-.91-1.87L44,63.21h-.85l.3-4.13h.78l1.26,2.67Z"/><path class="cls-1" d="M53.61,61.14a2.42,2.42,0,0,1-.14.83,2,2,0,0,1-.4.68,1.89,1.89,0,0,1-.65.46,2.37,2.37,0,0,1-1.77,0,1.92,1.92,0,0,1-.65-.46,2,2,0,0,1-.4-.68,2.57,2.57,0,0,1,0-1.65,1.94,1.94,0,0,1,.4-.68,1.92,1.92,0,0,1,.65-.46,2.37,2.37,0,0,1,1.77,0,1.9,1.9,0,0,1,.65.46,2,2,0,0,1,.4.68A2.43,2.43,0,0,1,53.61,61.14ZM51.53,62.6a1.19,1.19,0,0,0,.53-.11,1.08,1.08,0,0,0,.38-.31,1.32,1.32,0,0,0,.23-.46,2.26,2.26,0,0,0,0-1.15,1.32,1.32,0,0,0-.23-.46,1.08,1.08,0,0,0-.38-.31,1.31,1.31,0,0,0-1.06,0,1.07,1.07,0,0,0-.38.31,1.32,1.32,0,0,0-.23.46,2.26,2.26,0,0,0,0,1.15,1.32,1.32,0,0,0,.23.46,1.07,1.07,0,0,0,.38.31A1.19,1.19,0,0,0,51.53,62.6Z"/><path class="cls-1" d="M57.79,59.08H59a3,3,0,0,1,1,.16,2.27,2.27,0,0,1,.76.43,1.92,1.92,0,0,1,.48.65,2.09,2.09,0,0,1,0,1.65,1.92,1.92,0,0,1-.48.65A2.25,2.25,0,0,1,60,63a3,3,0,0,1-1,.16H57.79Zm1.26,3.44a1.9,1.9,0,0,0,.61-.09,1.37,1.37,0,0,0,.48-.27,1.21,1.21,0,0,0,.31-.43,1.56,1.56,0,0,0,0-1.16,1.21,1.21,0,0,0-.31-.43,1.38,1.38,0,0,0-.48-.27,1.91,1.91,0,0,0-.61-.09h-.4v2.75Z"/><path class="cls-1" d="M63.16,59.08h2.48v.69H64v1h1.54v.69H64v1.07h1.63v.69h-2.5Z"/><path class="cls-1" d="M72.55,62a1.13,1.13,0,0,1-.11.5,1.17,1.17,0,0,1-.31.4,1.46,1.46,0,0,1-.49.26,2,2,0,0,1-.63.09,3.13,3.13,0,0,1-.66-.07,2.65,2.65,0,0,1-.61-.21l.18-.66a3,3,0,0,0,.5.18,2.16,2.16,0,0,0,.57.07.91.91,0,0,0,.51-.13.41.41,0,0,0,.2-.37.44.44,0,0,0-.19-.37,2.53,2.53,0,0,0-.57-.3,4.09,4.09,0,0,1-.48-.23,1.56,1.56,0,0,1-.35-.27,1.08,1.08,0,0,1-.22-.33,1,1,0,0,1-.08-.41,1.05,1.05,0,0,1,.39-.88,1.63,1.63,0,0,1,1-.31,2.83,2.83,0,0,1,.61.06,2.19,2.19,0,0,1,.54.2l-.16.66a2.64,2.64,0,0,0-.46-.17,1.85,1.85,0,0,0-.49-.07.84.84,0,0,0-.44.1.35.35,0,0,0-.17.32.5.5,0,0,0,0,.17.34.34,0,0,0,.1.14,1,1,0,0,0,.2.13l.31.15.47.22a1.93,1.93,0,0,1,.4.27,1.25,1.25,0,0,1,.28.36A1,1,0,0,1,72.55,62Z"/><path class="cls-1" d="M78,63.21h-.9l-.29-.87h-1.7l-.29.87h-.9l1.57-4.13h.94Zm-2-3.43-.62,1.88h1.24Z"/><path class="cls-1" d="M82.41,63.21l-1.93-2.7v2.7h-.83V59.08h.83l1.93,2.7v-2.7h.83v4.13Z"/><path class="cls-1" d="M88.52,63.21h-.87V59.08h.87Z"/><path class="cls-1" d="M93.14,62a1.13,1.13,0,0,1-.11.5,1.17,1.17,0,0,1-.31.4,1.46,1.46,0,0,1-.49.26,2,2,0,0,1-.63.09,3.13,3.13,0,0,1-.66-.07,2.65,2.65,0,0,1-.61-.21l.18-.66a3,3,0,0,0,.5.18,2.16,2.16,0,0,0,.57.07.91.91,0,0,0,.51-.13.41.41,0,0,0,.2-.37.44.44,0,0,0-.19-.37,2.53,2.53,0,0,0-.57-.3A4.09,4.09,0,0,1,91,61.2a1.56,1.56,0,0,1-.35-.27,1.08,1.08,0,0,1-.22-.33,1,1,0,0,1-.08-.41,1.05,1.05,0,0,1,.39-.88,1.63,1.63,0,0,1,1-.31,2.83,2.83,0,0,1,.61.06,2.19,2.19,0,0,1,.54.2l-.16.66a2.64,2.64,0,0,0-.46-.17,1.85,1.85,0,0,0-.49-.07.84.84,0,0,0-.44.1.35.35,0,0,0-.17.32.5.5,0,0,0,0,.17.34.34,0,0,0,.1.14,1,1,0,0,0,.2.13l.31.15.47.22a1.93,1.93,0,0,1,.4.27,1.25,1.25,0,0,1,.28.36A1,1,0,0,1,93.14,62Z"/><path class="cls-1" d="M95.77,63.21H94.9V59.08h.87Z"/><path class="cls-1" d="M97.76,59.08H99a3,3,0,0,1,1,.16,2.27,2.27,0,0,1,.76.43,1.92,1.92,0,0,1,.48.65,2.09,2.09,0,0,1,0,1.65,1.92,1.92,0,0,1-.48.65A2.25,2.25,0,0,1,100,63a3,3,0,0,1-1,.16H97.76ZM99,62.52a1.9,1.9,0,0,0,.61-.09,1.37,1.37,0,0,0,.48-.27,1.21,1.21,0,0,0,.31-.43,1.56,1.56,0,0,0,0-1.16,1.21,1.21,0,0,0-.31-.43,1.38,1.38,0,0,0-.48-.27,1.91,1.91,0,0,0-.61-.09h-.4v2.75Z"/><path class="cls-1" d="M106.11,60.34a1.13,1.13,0,0,1-.25.74,1.56,1.56,0,0,1-.71.46l1.39,1.67h-1.08l-1.2-1.51H104v1.51h-.87V59.08h1.23a3,3,0,0,1,.71.08,1.67,1.67,0,0,1,.55.24,1.14,1.14,0,0,1,.36.39A1.12,1.12,0,0,1,106.11,60.34Zm-.87,0a.49.49,0,0,0-.25-.46,1.29,1.29,0,0,0-.64-.14H104V61h.26a1.33,1.33,0,0,0,.72-.17A.57.57,0,0,0,105.25,60.35Z"/><path class="cls-1" d="M112,61.14a2.42,2.42,0,0,1-.14.83,2,2,0,0,1-.4.68,1.89,1.89,0,0,1-.65.46,2.37,2.37,0,0,1-1.77,0,1.92,1.92,0,0,1-.65-.46A2,2,0,0,1,108,62a2.57,2.57,0,0,1,0-1.65,1.94,1.94,0,0,1,.4-.68,1.92,1.92,0,0,1,.65-.46,2.37,2.37,0,0,1,1.77,0,1.9,1.9,0,0,1,.65.46,2,2,0,0,1,.4.68A2.43,2.43,0,0,1,112,61.14ZM109.9,62.6a1.19,1.19,0,0,0,.53-.11,1.08,1.08,0,0,0,.38-.31,1.32,1.32,0,0,0,.23-.46,2.26,2.26,0,0,0,0-1.15,1.32,1.32,0,0,0-.23-.46,1.08,1.08,0,0,0-.38-.31,1.31,1.31,0,0,0-1.06,0,1.07,1.07,0,0,0-.38.31,1.32,1.32,0,0,0-.23.46,2.26,2.26,0,0,0,0,1.15,1.32,1.32,0,0,0,.23.46,1.07,1.07,0,0,0,.38.31A1.19,1.19,0,0,0,109.9,62.6Z"/><path class="cls-2" d="M112.64,54.72H8.32a.45.45,0,1,1,0-.9H112.64a.45.45,0,1,1,0,.9Z"/></svg>