<svg id="Layer_1" data-name="Layer 1" xmlns="http://www.w3.org/2000/svg" viewBox="0 0 120.96 71.64"><defs><style>.cls-1{fill:#fff;}.cls-2{fill:#93d1b3;}</style></defs><title>logo-footer</title><path class="cls-1" d="M15.2,19.18A9.14,9.14,0,0,0,12,17a11.27,11.27,0,0,0-4.45-.81L0,16.18l0,20.69,7.52,0a11.37,11.37,0,0,0,4.21-.75A9.23,9.23,0,0,0,15,34a9.11,9.11,0,0,0,2-3.27,12.08,12.08,0,0,0,.7-4.27,12.33,12.33,0,0,0-.65-4A9.17,9.17,0,0,0,15.2,19.18Zm-1.87,10a6.42,6.42,0,0,1-1.18,2.17,5.4,5.4,0,0,1-1.92,1.45,6.26,6.26,0,0,1-2.64.53H4.1l0-13.64h3.5a6.56,6.56,0,0,1,2.61.49,5.33,5.33,0,0,1,1.94,1.39,6.15,6.15,0,0,1,1.2,2.16,8.82,8.82,0,0,1,.41,2.74A8.71,8.71,0,0,1,13.33,29.18Z"/><path class="cls-1" d="M27.07,16.11,19.21,36.82h4.14l1.88-5.16,7.23,0,1.94,5.15h4.14L30.62,16.11ZM25.9,28.82l3-8.14,2.87,8.13Z"/><path class="cls-1" d="M56.56,26.58a6.89,6.89,0,0,0,1-3.66,6.68,6.68,0,0,0-.5-2.49,7.42,7.42,0,0,0-1.38-2.21,6.86,6.86,0,0,0-2.09-1.57A5.86,5.86,0,0,0,51,16.06l-9.15,0,0,20.69h4l0-6.94h4l4.24,6.93h4.52L53.84,29A5.78,5.78,0,0,0,56.56,26.58Zm-3.26-2.34a3.57,3.57,0,0,1-.55,1.06,2.63,2.63,0,0,1-.83.72,2.13,2.13,0,0,1-1,.26h-5V19.6H50.7a2.34,2.34,0,0,1,1,.25,2.86,2.86,0,0,1,.91.7,3.5,3.5,0,0,1,.63,1.06,3.76,3.76,0,0,1,.24,1.34A4.17,4.17,0,0,1,53.31,24.24Z"/><polygon class="cls-1" points="80.33 32.08 77.69 25.47 81.19 16.05 77.47 16.05 75.15 22.91 72.8 16.07 69.1 16.07 72.59 25.48 70.04 32.1 64.12 16.03 59.8 16.04 68.22 36.71 71.59 36.7 75.16 28.01 78.76 36.69 82.14 36.68 90.52 15.97 86.15 15.98 80.33 32.08"/><rect class="cls-1" x="94.01" y="15.95" width="4.02" height="20.69" transform="translate(-0.06 0.22) rotate(-0.13)"/><polygon class="cls-1" points="120.92 36.58 120.87 15.92 116.85 15.93 116.88 29.48 106.07 15.92 102.95 15.93 103 36.62 107.02 36.61 106.99 23.35 117.65 36.59 120.92 36.58"/><path class="cls-2" d="M22.16,55.32a.25.25,0,0,1-.07-.18V48.61H20a.25.25,0,0,1-.25-.25v-.43a.26.26,0,0,1,.07-.19.25.25,0,0,1,.18-.07h5.3a.24.24,0,0,1,.19.07.28.28,0,0,1,.07.19v.43a.25.25,0,0,1-.25.25H23.14v6.53a.24.24,0,0,1-.08.18.27.27,0,0,1-.19.07h-.53A.25.25,0,0,1,22.16,55.32Z"/><path class="cls-2" d="M30.48,54.74a3.17,3.17,0,0,1-.83-2.28q0-.33,0-.94t0-.93a3.13,3.13,0,0,1,.86-2.28,3.49,3.49,0,0,1,4.38,0,3.15,3.15,0,0,1,.85,2.28q0,.64,0,.93t0,.94a3.18,3.18,0,0,1-.82,2.28,3,3,0,0,1-2.21.76A3.07,3.07,0,0,1,30.48,54.74Zm3.63-.7a2.39,2.39,0,0,0,.57-1.64q0-.66,0-.88t0-.88A2.42,2.42,0,0,0,34.12,49a2.12,2.12,0,0,0-2.83,0,2.36,2.36,0,0,0-.57,1.65q0,.32,0,.88t0,.88A2.36,2.36,0,0,0,31.28,54a2.15,2.15,0,0,0,2.84,0Z"/><path class="cls-2" d="M40.8,55.32a.26.26,0,0,1-.07-.18V47.92a.28.28,0,0,1,.07-.19.23.23,0,0,1,.18-.07h2.7a3,3,0,0,1,2,.59A2.1,2.1,0,0,1,46.36,50a2.05,2.05,0,0,1-1.59,2.13L46.47,55a.28.28,0,0,1,0,.12.23.23,0,0,1-.22.22h-.49a.4.4,0,0,1-.26-.08.72.72,0,0,1-.17-.22l-1.62-2.83h-2v2.87a.24.24,0,0,1-.08.18.26.26,0,0,1-.19.07H41A.23.23,0,0,1,40.8,55.32Zm2.83-4q1.67,0,1.67-1.4t-1.67-1.4H41.77v2.81Z"/><path class="cls-2" d="M53,55.32a.25.25,0,0,1-.07-.18V48.61H50.75a.25.25,0,0,1-.25-.25v-.43a.26.26,0,0,1,.07-.19.25.25,0,0,1,.18-.07h5.3a.24.24,0,0,1,.19.07.28.28,0,0,1,.07.19v.43a.25.25,0,0,1-.25.25H53.94v6.53a.24.24,0,0,1-.08.18.27.27,0,0,1-.19.07h-.53A.25.25,0,0,1,53,55.32Z"/><path class="cls-2" d="M61.61,54.73a3.15,3.15,0,0,1-.77-2.33V47.92a.28.28,0,0,1,.07-.19.23.23,0,0,1,.18-.07h.53a.25.25,0,0,1,.27.27v4.51a2.27,2.27,0,0,0,.5,1.61,1.88,1.88,0,0,0,1.43.53A1.85,1.85,0,0,0,65.23,54a2.27,2.27,0,0,0,.5-1.61V47.92a.27.27,0,0,1,.07-.19.24.24,0,0,1,.19-.07h.53a.25.25,0,0,1,.18.07.26.26,0,0,1,.07.19v4.48A3.16,3.16,0,0,1,66,54.73a3.52,3.52,0,0,1-4.39,0Z"/><path class="cls-2" d="M72.54,54.7a3.1,3.1,0,0,1-.85-2.15q0-.33,0-1t0-1a3,3,0,0,1,.85-2.14,3,3,0,0,1,2.24-.79,3.51,3.51,0,0,1,1.65.35,2.78,2.78,0,0,1,1,.85,1.8,1.8,0,0,1,.36.91v0a.19.19,0,0,1-.07.15.24.24,0,0,1-.16.06h-.62a.22.22,0,0,1-.15,0,.41.41,0,0,1-.09-.17,1.8,1.8,0,0,0-.65-.87,2.1,2.1,0,0,0-1.28-.35,2,2,0,0,0-1.46.51,2.19,2.19,0,0,0-.56,1.57q0,.32,0,1t0,1a2.2,2.2,0,0,0,.56,1.58,2,2,0,0,0,1.46.51,2.14,2.14,0,0,0,1.5-.51,2,2,0,0,0,.56-1.54v-.47H75.14A.24.24,0,0,1,75,52a.26.26,0,0,1-.07-.19v-.33a.26.26,0,0,1,.07-.19.24.24,0,0,1,.18-.08h2.47a.25.25,0,0,1,.27.27v1a3.24,3.24,0,0,1-.37,1.57,2.53,2.53,0,0,1-1.08,1,3.55,3.55,0,0,1-1.67.37A3,3,0,0,1,72.54,54.7Z"/><path class="cls-2" d="M82,55.32a.21.21,0,0,1-.07-.15l0-.12,2.74-7.15a.34.34,0,0,1,.35-.24h.71a.34.34,0,0,1,.35.24L88.82,55l0,.12a.2.2,0,0,1-.07.15.23.23,0,0,1-.16.07h-.52a.27.27,0,0,1-.18-.06.29.29,0,0,1-.09-.13l-.62-1.59H83.54l-.61,1.59a.29.29,0,0,1-.28.19h-.53A.21.21,0,0,1,82,55.32Zm1.89-2.63h3l-1.51-4Z"/><path class="cls-2" d="M94.15,55.21a2.41,2.41,0,0,1-1-.76,1.79,1.79,0,0,1-.37-1,.21.21,0,0,1,.07-.15.22.22,0,0,1,.17-.07h.54a.28.28,0,0,1,.28.22,1.33,1.33,0,0,0,.57.8,2.28,2.28,0,0,0,1.34.34,2.42,2.42,0,0,0,1.4-.33,1.06,1.06,0,0,0,.46-.92.87.87,0,0,0-.23-.62,1.88,1.88,0,0,0-.67-.43q-.45-.18-1.34-.45A6.68,6.68,0,0,1,94,51.32a2,2,0,0,1-.76-.68,1.88,1.88,0,0,1-.25-1,1.85,1.85,0,0,1,.32-1.07,2.14,2.14,0,0,1,.93-.74,3.51,3.51,0,0,1,1.44-.27,3.29,3.29,0,0,1,1.47.3,2.42,2.42,0,0,1,.93.76,1.76,1.76,0,0,1,.34.92.23.23,0,0,1-.23.23h-.55a.28.28,0,0,1-.17-.06.3.3,0,0,1-.11-.17,1.11,1.11,0,0,0-.53-.78,2,2,0,0,0-1.16-.31,2.14,2.14,0,0,0-1.19.29,1,1,0,0,0-.44.87.94.94,0,0,0,.2.63,1.71,1.71,0,0,0,.63.43,11,11,0,0,0,1.24.43,8.89,8.89,0,0,1,1.48.53,2,2,0,0,1,.8.66,1.77,1.77,0,0,1,.27,1,1.89,1.89,0,0,1-.79,1.62,3.54,3.54,0,0,1-2.14.58A4,4,0,0,1,94.15,55.21Z"/></svg>